<?xml version="1.0" encoding="UTF-8" standalone="no"?>
<svg width="8px" height="10px" viewBox="0 0 8 10" version="1.1" xmlns="http://www.w3.org/2000/svg" xmlns:xlink="http://www.w3.org/1999/xlink">
    <!-- Generator: Sketch 3.6.1 (26313) - http://www.bohemiancoding.com/sketch -->
    <title>lock</title>
    <desc>Created with Sketch.</desc>
    <defs></defs>
    <g id="Welcome" stroke="none" stroke-width="1" fill="none" fill-rule="evenodd">
        <g id="Login" transform="translate(-482.000000, -317.000000)" fill="#9B9B9B">
            <g id="Group-8-Copy-2" transform="translate(422.000000, 168.000000)">
                <g id="Group-5" transform="translate(20.000000, 53.000000)">
                    <g id="input-single-line" transform="translate(0.000000, 23.000000)">
                        <path d="M42.2222222,77.4444444 L45.7777778,77.4444444 L45.7777778,76.1111111 C45.7777778,75.6203679 45.6041684,75.2013906 45.2569444,74.8541667 C44.9097205,74.5069427 44.4907432,74.3333333 44,74.3333333 C43.5092568,74.3333333 43.0902795,74.5069427 42.7430556,74.8541667 C42.3958316,75.2013906 42.2222222,75.6203679 42.2222222,76.1111111 L42.2222222,77.4444444 Z M48,78.1111111 L48,82.1111111 C48,82.2962972 47.9351858,82.4537031 47.8055556,82.5833333 C47.6759253,82.7129636 47.5185194,82.7777778 47.3333333,82.7777778 L40.6666667,82.7777778 C40.4814806,82.7777778 40.3240747,82.7129636 40.1944444,82.5833333 C40.0648142,82.4537031 40,82.2962972 40,82.1111111 L40,78.1111111 C40,77.925925 40.0648142,77.7685192 40.1944444,77.6388889 C40.3240747,77.5092586 40.4814806,77.4444444 40.6666667,77.4444444 L40.8888889,77.4444444 L40.8888889,76.1111111 C40.8888889,75.259255 41.1944414,74.5277808 41.8055556,73.9166667 C42.4166697,73.3055525 43.1481439,73 44,73 C44.8518561,73 45.5833303,73.3055525 46.1944444,73.9166667 C46.8055586,74.5277808 47.1111111,75.259255 47.1111111,76.1111111 L47.1111111,77.4444444 L47.3333333,77.4444444 C47.5185194,77.4444444 47.6759253,77.5092586 47.8055556,77.6388889 C47.9351858,77.7685192 48,77.925925 48,78.1111111 L48,78.1111111 Z" id="lock"></path>
                    </g>
                </g>
            </g>
        </g>
    </g>
</svg>