<?xml version="1.0" encoding="UTF-8" standalone="no"?>
<svg width="15px" height="11px" viewBox="0 0 15 11" version="1.1" xmlns="http://www.w3.org/2000/svg" xmlns:xlink="http://www.w3.org/1999/xlink">
    <!-- Generator: Sketch 3.7.1 (28215) - http://www.bohemiancoding.com/sketch -->
    <title>icon_cloud</title>
    <desc>Created with Sketch.</desc>
    <defs></defs>
    <g id="Welcome" stroke="none" stroke-width="1" fill="none" fill-rule="evenodd">
        <g id="Logo" transform="translate(-598.000000, -191.000000)" fill="#FFFFFF">
            <path d="M608,197.25 C608,197.177083 607.976563,197.117188 607.929688,197.070312 C607.882812,197.023437 607.822917,197 607.75,197 L606,197 L606,194.25 C606,194.182291 605.975261,194.123698 605.925781,194.074219 C605.876302,194.024739 605.817709,194 605.75,194 L604.25,194 C604.182291,194 604.123698,194.024739 604.074219,194.074219 C604.024739,194.123698 604,194.182291 604,194.25 L604,197 L602.25,197 C602.182291,197 602.123698,197.024739 602.074219,197.074219 C602.024739,197.123698 602,197.182291 602,197.25 C602,197.322917 602.023437,197.382812 602.070312,197.429688 L604.820312,200.179688 C604.867188,200.226563 604.927083,200.25 605,200.25 C605.072917,200.25 605.132812,200.226563 605.179688,200.179688 L607.921875,197.4375 C607.973959,197.375 608,197.3125 608,197.25 L608,197.25 Z M613,199 C613,199.828129 612.707034,200.535153 612.121094,201.121094 C611.535153,201.707034 610.828129,202 610,202 L601.5,202 C600.536454,202 599.712243,201.657556 599.027344,200.972656 C598.342444,200.287757 598,199.463546 598,198.5 C598,197.822913 598.18229,197.19792 598.546875,196.625 C598.91146,196.05208 599.401039,195.622397 600.015625,195.335938 C600.005208,195.179687 600,195.067709 600,195 C600,193.895828 600.390621,192.953129 601.171875,192.171875 C601.953129,191.390621 602.895828,191 604,191 C604.812504,191 605.555986,191.22656 606.230469,191.679688 C606.904951,192.132815 607.395832,192.734371 607.703125,193.484375 C608.072919,193.161457 608.505206,193 609,193 C609.552086,193 610.023436,193.195311 610.414062,193.585938 C610.804689,193.976564 611,194.447914 611,195 C611,195.395835 610.89323,195.755207 610.679688,196.078125 C611.356774,196.239584 611.912758,196.592445 612.347656,197.136719 C612.782554,197.680992 613,198.30208 613,199 L613,199 Z" id="icon_cloud"></path>
        </g>
    </g>
</svg>