<?xml version="1.0" encoding="UTF-8" standalone="no"?>
<svg width="13px" height="12px" viewBox="0 0 13 12" version="1.1" xmlns="http://www.w3.org/2000/svg" xmlns:xlink="http://www.w3.org/1999/xlink">
    <!-- Generator: Sketch 3.7.1 (28215) - http://www.bohemiancoding.com/sketch -->
    <title>icon_download</title>
    <desc>Created with Sketch.</desc>
    <defs></defs>
    <g id="Welcome" stroke="none" stroke-width="1" fill="none" fill-rule="evenodd">
        <g id="Logo" transform="translate(-716.000000, -410.000000)" fill="#FFFFFF">
            <path d="M726,420.5 C726,420.364583 725.950521,420.247396 725.851562,420.148438 C725.752604,420.049479 725.635417,420 725.5,420 C725.364583,420 725.247396,420.049479 725.148438,420.148438 C725.049479,420.247396 725,420.364583 725,420.5 C725,420.635417 725.049479,420.752604 725.148438,420.851562 C725.247396,420.950521 725.364583,421 725.5,421 C725.635417,421 725.752604,420.950521 725.851562,420.851562 C725.950521,420.752604 726,420.635417 726,420.5 L726,420.5 Z M728,420.5 C728,420.364583 727.950521,420.247396 727.851562,420.148438 C727.752604,420.049479 727.635417,420 727.5,420 C727.364583,420 727.247396,420.049479 727.148438,420.148438 C727.049479,420.247396 727,420.364583 727,420.5 C727,420.635417 727.049479,420.752604 727.148438,420.851562 C727.247396,420.950521 727.364583,421 727.5,421 C727.635417,421 727.752604,420.950521 727.851562,420.851562 C727.950521,420.752604 728,420.635417 728,420.5 L728,420.5 Z M729,418.75 L729,421.25 C729,421.458334 728.927084,421.635416 728.78125,421.78125 C728.635416,421.927084 728.458334,422 728.25,422 L716.75,422 C716.541666,422 716.364584,421.927084 716.21875,421.78125 C716.072916,421.635416 716,421.458334 716,421.25 L716,418.75 C716,418.541666 716.072916,418.364584 716.21875,418.21875 C716.364584,418.072916 716.541666,418 716.75,418 L720.382812,418 L721.4375,419.0625 C721.739585,419.354168 722.093748,419.5 722.5,419.5 C722.906252,419.5 723.260415,419.354168 723.5625,419.0625 L724.625,418 L728.25,418 C728.458334,418 728.635416,418.072916 728.78125,418.21875 C728.927084,418.364584 729,418.541666 729,418.75 L729,418.75 Z M726.460938,414.304688 C726.54948,414.51823 726.513022,414.70052 726.351562,414.851562 L722.851562,418.351562 C722.757812,418.450521 722.640626,418.5 722.5,418.5 C722.359374,418.5 722.242188,418.450521 722.148438,418.351562 L718.648438,414.851562 C718.486978,414.70052 718.45052,414.51823 718.539062,414.304688 C718.627605,414.101561 718.781249,414 719,414 L721,414 L721,410.5 C721,410.364583 721.049479,410.247396 721.148438,410.148438 C721.247396,410.049479 721.364583,410 721.5,410 L723.5,410 C723.635417,410 723.752604,410.049479 723.851562,410.148438 C723.950521,410.247396 724,410.364583 724,410.5 L724,414 L726,414 C726.218751,414 726.372395,414.101561 726.460938,414.304688 L726.460938,414.304688 Z" id="icon_download"></path>
        </g>
    </g>
</svg>