<?xml version="1.0" encoding="UTF-8" standalone="no"?>
<svg width="12px" height="14px" viewBox="0 0 12 14" version="1.1" xmlns="http://www.w3.org/2000/svg" xmlns:xlink="http://www.w3.org/1999/xlink">
    <!-- Generator: Sketch 3.7.1 (28215) - http://www.bohemiancoding.com/sketch -->
    <title>icon_search_subtitles</title>
    <desc>Created with Sketch.</desc>
    <defs></defs>
    <g id="Welcome" stroke="none" stroke-width="1" fill="none" fill-rule="evenodd">
        <g id="Logo" transform="translate(-619.000000, -171.000000)" fill="#FFFFFF">
            <path d="M630.822034,173.771186 C630.881356,173.830509 630.940678,173.906779 631,174 L628,174 L628,171 C628.093221,171.059322 628.169491,171.118644 628.228814,171.177966 L630.822034,173.771186 Z M631,175 L631,184.25 C631,184.458334 630.927084,184.635416 630.78125,184.78125 C630.635416,184.927084 630.458334,185 630.25,185 L619.75,185 C619.541666,185 619.364584,184.927084 619.21875,184.78125 C619.072916,184.635416 619,184.458334 619,184.25 L619,171.75 C619,171.541666 619.072916,171.364584 619.21875,171.21875 C619.364584,171.072916 619.541666,171 619.75,171 L626.995361,171 L627,174.25 C627,174.458334 627.072916,174.635416 627.21875,174.78125 C627.364584,174.927084 627.541666,175 627.75,175 L631,175 Z M626.114286,180.515966 C626.114286,180.230251 626.013446,180.010925 625.811765,179.857983 C625.610083,179.705041 625.247061,179.543698 624.722689,179.37395 C624.198317,179.204201 623.783195,179.036976 623.477311,178.872269 C622.643693,178.421846 622.226891,177.81513 622.226891,177.052101 C622.226891,176.65546 622.338654,176.301682 622.562185,175.990756 C622.785715,175.67983 623.106721,175.436976 623.52521,175.262185 C623.9437,175.087394 624.413443,175 624.934454,175 C625.458826,175 625.926048,175.094957 626.336134,175.284874 C626.746221,175.474791 627.064705,175.742855 627.291597,176.089076 C627.518489,176.435296 627.631933,176.828569 627.631933,177.268908 L626.119328,177.268908 C626.119328,176.932771 626.013446,176.67143 625.801681,176.484874 C625.589915,176.298318 625.292439,176.205042 624.909244,176.205042 C624.539494,176.205042 624.252102,176.283192 624.047059,176.439496 C623.842016,176.595799 623.739496,176.801679 623.739496,177.057143 C623.739496,177.2958 623.859663,177.495798 624.1,177.657143 C624.340337,177.818488 624.694115,177.969747 625.161345,178.110924 C626.021853,178.369749 626.648738,178.690754 627.042017,179.07395 C627.435296,179.457145 627.631933,179.934451 627.631933,180.505882 C627.631933,181.14118 627.391599,181.639494 626.910924,182.00084 C626.43025,182.362187 625.783197,182.542857 624.969748,182.542857 C624.405039,182.542857 623.890759,182.439497 623.426891,182.232773 C622.963023,182.026049 622.609245,181.742859 622.365546,181.383193 C622.121848,181.023528 622,180.606725 622,180.132773 L623.517647,180.132773 C623.517647,180.942861 624.001676,181.347899 624.969748,181.347899 C625.329414,181.347899 625.610083,181.274791 625.811765,181.128571 C626.013446,180.982352 626.114286,180.778153 626.114286,180.515966 Z" id="icon_search_subtitles"></path>
        </g>
    </g>
</svg>