<?xml version="1.0" encoding="UTF-8" standalone="no"?>
<svg width="12px" height="14px" viewBox="0 0 12 14" version="1.1" xmlns="http://www.w3.org/2000/svg" xmlns:xlink="http://www.w3.org/1999/xlink">
    <!-- Generator: Sketch 3.7.1 (28215) - http://www.bohemiancoding.com/sketch -->
    <title>icon-file-zip</title>
    <desc>Created with Sketch.</desc>
    <defs></defs>
    <g id="Welcome" stroke="none" stroke-width="1" fill="none" fill-rule="evenodd">
        <g id="Logo" transform="translate(-562.000000, -205.000000)" fill="#FFFFFF">
            <path d="M566,208 L566,207 L567,207 L567,208 L566,208 Z M567,209 L567,208 L568,208 L568,209 L567,209 Z M566,210 L566,209 L567,209 L567,210 L566,210 Z M567,211 L567,210 L568,210 L568,211 L567,211 Z M573.46875,207.96875 C573.614584,208.114584 573.739583,208.312499 573.84375,208.5625 C573.947917,208.812501 574,209.041666 574,209.25 L574,218.25 C574,218.458334 573.927084,218.635416 573.78125,218.78125 C573.635416,218.927084 573.458334,219 573.25,219 L562.75,219 C562.541666,219 562.364584,218.927084 562.21875,218.78125 C562.072916,218.635416 562,218.458334 562,218.25 L562,205.75 C562,205.541666 562.072916,205.364584 562.21875,205.21875 C562.364584,205.072916 562.541666,205 562.75,205 L569.75,205 C569.958334,205 570.187499,205.052083 570.4375,205.15625 C570.687501,205.260417 570.885416,205.385416 571.03125,205.53125 L573.46875,207.96875 Z M570,206.0625 L570,209 L572.9375,209 C572.885416,208.848958 572.828125,208.742188 572.765625,208.679688 L570.320312,206.234375 C570.257812,206.171875 570.151042,206.114584 570,206.0625 L570,206.0625 Z M573,218 L573,210 L569.75,210 C569.541666,210 569.364584,209.927084 569.21875,209.78125 C569.072916,209.635416 569,209.458334 569,209.25 L569,206 L568,206 L568,207 L567,207 L567,206 L563,206 L563,218 L573,218 Z M568.101562,212.367188 L568.9375,215.09375 C568.979167,215.234376 569,215.369791 569,215.5 C569,215.932294 568.8112,216.290363 568.433594,216.574219 C568.055988,216.858074 567.578128,217 567,217 C566.421872,217 565.944012,216.858074 565.566406,216.574219 C565.1888,216.290363 565,215.932294 565,215.5 C565,215.369791 565.020833,215.234376 565.0625,215.09375 C565.171876,214.765623 565.484372,213.734384 566,212 L566,211 L567,211 L567,212 L567.617188,212 C567.731771,212 567.833333,212.033854 567.921875,212.101562 C568.010417,212.169271 568.070312,212.257812 568.101562,212.367188 L568.101562,212.367188 Z M567,216 C567.276043,216 567.511718,215.950521 567.707031,215.851562 C567.902345,215.752604 568,215.635417 568,215.5 C568,215.364583 567.902345,215.247396 567.707031,215.148438 C567.511718,215.049479 567.276043,215 567,215 C566.723957,215 566.488282,215.049479 566.292969,215.148438 C566.097655,215.247396 566,215.364583 566,215.5 C566,215.635417 566.097655,215.752604 566.292969,215.851562 C566.488282,215.950521 566.723957,216 567,216 L567,216 Z" id="icon-file-zip"></path>
        </g>
    </g>
</svg>